<?xml version="1.0" encoding="utf-8"?>
<!-- Generator: Adobe Illustrator 24.0.1, SVG Export Plug-In . SVG Version: 6.00 Build 0)  -->
<svg version="1.1" id="Layer_1" xmlns="http://www.w3.org/2000/svg" xmlns:xlink="http://www.w3.org/1999/xlink" x="0px" y="0px"
	 viewBox="0 0 1920 1080" style="enable-background:new 0 0 1920 1080;" xml:space="preserve">
<style type="text/css">
	.st0{fill:url(#SVGID_1_);}
	.st1{display:none;}
	.st2{display:inline;fill:url(#SVGID_2_);}
	.st3{display:inline;fill:url(#SVGID_3_);}
	.st4{display:inline;fill:url(#SVGID_4_);}
	.st5{display:inline;fill:url(#SVGID_5_);}
	.st6{fill:url(#SVGID_6_);}
	.st7{fill:url(#SVGID_7_);}
	.st8{fill:url(#SVGID_8_);}
	.st9{fill:url(#SVGID_9_);}
	.st10{fill:url(#SVGID_10_);}
	.st11{fill:url(#SVGID_11_);}
	.st12{fill:url(#SVGID_12_);}
	.st13{fill:url(#SVGID_13_);}
	.st14{fill:url(#SVGID_14_);}
	.st15{fill:url(#SVGID_15_);}
	.st16{fill:url(#SVGID_16_);}
	.st17{fill:url(#SVGID_17_);}
	.st18{fill:url(#SVGID_18_);}
	.st19{fill:url(#SVGID_19_);}
</style>
<linearGradient id="SVGID_1_" gradientUnits="userSpaceOnUse" x1="387.2617" y1="-209.4411" x2="1148.2833" y2="220.6287" gradientTransform="matrix(1.007 0.2202 -0.2072 0.9473 34.7422 -236.2704)">
	<stop  offset="0" style="stop-color:#F8049C"/>
	<stop  offset="0.4162" style="stop-color:#FA597D"/>
	<stop  offset="1" style="stop-color:#FDD54F"/>
</linearGradient>
<path class="st0" d="M375.74-221.23l2.23,263.5c-7.63-28.12-13.08-59.67-16.36-94.62C357.05-103.15,356.89-165.44,375.74-221.23z
	 M403.47,108.15c6.71,12.75,14.58,24.59,23.14,35.41l-3.92-444.79c-8.62,9.01-16.42,18.59-22.85,28.46L403.47,108.15z M451.7,170.05
	c7.19,6.24,14.91,12.21,22.79,17.43l-4.33-525.42c-8.1,4.45-15.83,9.38-22.73,14.87L451.7,170.05z M499.45,201.51
	c7.3,3.54,15.22,6.44,23.14,9.34l-4.84-568.71c-8.15,2.5-15.39,5.19-22.71,8.26L499.45,201.51z M547.57,218.26
	c7.17,1.96,14.96,3.27,22.75,4.59l-5.04-591.71c-7.9,1.38-15.27,2.5-22.8,4.35L547.57,218.26L547.57,218.26z M595.21,226.34
	c7.42,0.84,14.91,1.32,22.87,1.89l-5.27-601.49c-7.66,0.27-15.4,0.91-22.69,1.65L595.21,226.34L595.21,226.34z M643.16,228.66
	c1.44-0.07,2.35,0.12,3.79,0.05c6.67-0.1,12.97-0.66,19.27-1.23L660.7-372.9c-7.95-0.57-15.53-0.67-22.66-0.68L643.16,228.66
	L643.16,228.66z M690.71,221.94c7.69-2.6,15.47-5.57,22.87-9l-4.96-581.19c-7.34-1.22-14.75-2.06-23.08-3.1L690.71,221.94
	L690.71,221.94z M738.21,198.09c7.81-5.3,15.33-11.43,22.93-17.94l-4.78-536.41c-7.09-2.33-14.64-4.76-23.17-7.01
	C733.18-363.28,738.21,198.09,738.21,198.09z M785.82,156.36c7.47-8.09,14.94-16.19,22.49-24.65l-4.1-463.5
	c-7.51-4.76-15.1-9.14-23.23-13.25L785.82,156.36z M833.06,103.27c7.55-8.46,15.1-16.93,22.57-25.02l-3.16-376.53
	c-7.8-5.6-15.6-11.19-22.95-16.69C829.51-314.97,833.06,103.27,833.06,103.27z M880.02,53.63c7.23-6.98,14.83-13.49,22.72-19.15
	l-2.73-302.52c-8.05-4.48-15.64-8.87-23.23-13.25C876.78-281.29,880.02,53.63,880.02,53.63z M927.85,17.4
	c7.11-4.28,15.05-7.99,22.91-11.33l-2.32-252.24c-8.37-3-15.75-6.17-23.06-9.71C925.38-255.88,927.85,17.4,927.85,17.4z
	 M975.44-2.54c7.53-1.85,14.98-3.34,22.8-4.35l-1.9-223.74c-8.08-2.16-15.62-4.58-22.72-6.91L975.44-2.54L975.44-2.54z
	 M1022.75-8.14c7.58,0.1,15.08,0.57,22.95,1.52l-1.99-212.48l-23.12-5.06L1022.75-8.14L1022.75-8.14z M1070.88-2.29
	c7.25,1.59,14.88,3.64,22.88,6.17l-2.04-214.43c-7.79-1.31-15.66-2.26-22.91-3.84L1070.88-2.29z M1118.49,12.41
	c3.09,1.07,5.73,2.03,8.74,3.47c4.82,1.83,9.57,4.04,14.47,5.5l-1.87-226.07c-7.87-0.94-15.29-1.79-22.7-2.63L1118.49,12.41z
	 M1166.53,29.53c7.63,2.06,15.25,4.11,22.96,5.8l-1.89-234.63c-7.42-0.84-14.83-1.69-22.7-2.63L1166.53,29.53L1166.53,29.53z
	 M1214.22,39.57c7.87,0.94,15.37,1.42,22.87,1.89l-2.01-231.94l-22.67-4.96L1214.22,39.57L1214.22,39.57z M1261.96,40.67
	c7.74-0.64,15.56-1.65,23.01-3.14l-1.91-212.85c-7.46-2.8-14.93-5.6-22.93-8.13C1260.14-183.44,1261.96,40.67,1261.96,40.67z
	 M1309.79,30.51c8.23-2.87,15.71-6.68,22.74-10.59L1331.22-150c-6.98-5.03-14.57-9.41-23.07-13.99
	C1308.15-164,1309.79,30.51,1309.79,30.51z M1356-128.63l1.07,129.79c10.31-10.2,18.14-22.1,22.79-34.7l-0.51-58.47
	C1374.52-104.74,1366.74-116.94,1356-128.63L1356-128.63z"/>
<g class="st1">
	
		<linearGradient id="SVGID_2_" gradientUnits="userSpaceOnUse" x1="1156.5121" y1="727.3112" x2="1402.521" y2="727.3112" gradientTransform="matrix(-9.3692 7.4611 5.9518 7.4739 9252.3848 -12858.3945)">
		<stop  offset="0" style="stop-color:#0066FF"/>
		<stop  offset="1" style="stop-color:#FFA4D8"/>
	</linearGradient>
	<path class="st2" d="M711.17,3378.54c139.13,142.03,397.55,137.76,598.04-8.46c155.26-112.65,240.1-279.14,238.78-430.76
		c-0.36-75.44,56.31-152.32,135.58-187.36c61.31-26.84,122.54-63.38,178.75-108.15c164.9-131.32,263.19-309.74,281.98-482.26
		c10.64-100.07,80.35-197.11,177.35-256.04c42.58-25.36,84.06-55.95,122.56-90.27c250.09-222.37,321.79-559.15,166.98-776.63
		c-175.56-247.37-567.94-253.67-862.13-19.39c-121.8,96.99-206.51,219.41-250.54,344.86c-44.37,126.93-172.3,223.92-304.83,230.54
		c-154.32,8.09-319.16,72.18-458.69,193.06c-256.22,222.36-332.69,566.61-174.56,786.33c18.7,25.41,38.09,47.83,60.88,68.76
		c76.8,69.53,93.73,183.07,41.46,294.31C588.93,3092.38,599.25,3264.92,711.17,3378.54L711.17,3378.54z"/>
	
		<linearGradient id="SVGID_3_" gradientUnits="userSpaceOnUse" x1="1156.4675" y1="774.1155" x2="1402.5675" y2="774.1155" gradientTransform="matrix(-9.3692 7.4611 5.9518 7.4739 9252.3848 -12858.3945)">
		<stop  offset="0" style="stop-color:#0066FF"/>
		<stop  offset="1" style="stop-color:#FFA4D8"/>
	</linearGradient>
	<path class="st3" d="M2483.6,2131.96c-61.58,49.04-143.2,48.97-182.32-0.15c-39.12-49.12-20.91-128.69,40.67-177.73
		c61.58-49.04,143.2-48.97,182.32,0.15C2563.38,2003.36,2545.17,2082.93,2483.6,2131.96z"/>
	
		<linearGradient id="SVGID_4_" gradientUnits="userSpaceOnUse" x1="1156.4675" y1="806.3155" x2="1402.5675" y2="806.3155" gradientTransform="matrix(-9.3692 7.4611 5.9518 7.4739 9252.3848 -12858.3945)">
		<stop  offset="0" style="stop-color:#0066FF"/>
		<stop  offset="1" style="stop-color:#FFA4D8"/>
	</linearGradient>
	<path class="st4" d="M2038.61,2820.97c-36.74,29.26-85.44,29.22-108.78-0.09c-23.34-29.31-12.48-76.78,24.26-106.04
		c36.74-29.26,85.44-29.22,108.78,0.09C2086.22,2744.24,2075.35,2791.72,2038.61,2820.97z"/>
	
		<linearGradient id="SVGID_5_" gradientUnits="userSpaceOnUse" x1="1156.4675" y1="710.1155" x2="1402.5675" y2="710.1155" gradientTransform="matrix(-9.3692 7.4611 5.9518 7.4739 9252.3848 -12858.3945)">
		<stop  offset="0" style="stop-color:#0066FF"/>
		<stop  offset="1" style="stop-color:#FFA4D8"/>
	</linearGradient>
	<path class="st5" d="M463.59,2950.37c-57.95,46.15-134.78,46.09-171.6-0.14s-19.68-121.12,38.27-167.27
		c57.95-46.15,134.78-46.09,171.6,0.14S521.54,2904.22,463.59,2950.37z"/>
</g>
<g>
	
		<linearGradient id="SVGID_6_" gradientUnits="userSpaceOnUse" x1="1834.6586" y1="-434.6048" x2="2515.571" y2="-434.6048" gradientTransform="matrix(0.66 -0.7512 -0.7512 -0.66 547.3607 2704.4529)">
		<stop  offset="0" style="stop-color:#43E8ED"/>
		<stop  offset="0.4464" style="stop-color:#349FF6"/>
		<stop  offset="0.8197" style="stop-color:#2868FC"/>
		<stop  offset="1" style="stop-color:#2453FF"/>
	</linearGradient>
	<path class="st6" d="M2320.38,1819.1c12.68-8.16,25.37-16.31,37.01-25.38l-35.59-878.48c-12.29-6.94-25.54-12.79-38.79-18.65
		C2283,896.59,2320.38,1819.1,2320.38,1819.1z"/>
	
		<linearGradient id="SVGID_7_" gradientUnits="userSpaceOnUse" x1="2035.4369" y1="-534.7797" x2="2526.4441" y2="-534.7797" gradientTransform="matrix(0.66 -0.7512 -0.7512 -0.66 547.3607 2704.4529)">
		<stop  offset="0" style="stop-color:#43E8ED"/>
		<stop  offset="0.4464" style="stop-color:#349FF6"/>
		<stop  offset="0.8197" style="stop-color:#2868FC"/>
		<stop  offset="1" style="stop-color:#2453FF"/>
	</linearGradient>
	<path class="st7" d="M2480.53,1052.77c-12.7-16.95-25.32-31.89-39.93-46.66l27.4,676.37c13.32-17.25,25.59-35.41,35.88-53.39
		L2480.53,1052.77z"/>
	
		<linearGradient id="SVGID_8_" gradientUnits="userSpaceOnUse" x1="1686.0428" y1="-333.739" x2="2452.97" y2="-333.739" gradientTransform="matrix(0.66 -0.7512 -0.7512 -0.66 547.3607 2704.4529)">
		<stop  offset="0" style="stop-color:#43E8ED"/>
		<stop  offset="0.4464" style="stop-color:#349FF6"/>
		<stop  offset="0.8197" style="stop-color:#2868FC"/>
		<stop  offset="1" style="stop-color:#2453FF"/>
	</linearGradient>
	<path class="st8" d="M2169.92,1885.68c12.85-4.15,25.69-8.31,37.58-11.37l-41.02-1012.56c-13.09-1.85-26.18-3.7-38.23-4.64
		C2128.24,857.11,2169.92,1885.68,2169.92,1885.68z"/>
	
		<linearGradient id="SVGID_9_" gradientUnits="userSpaceOnUse" x1="1755.6317" y1="-384.1719" x2="2490.2581" y2="-384.1719" gradientTransform="matrix(0.66 -0.7512 -0.7512 -0.66 547.3607 2704.4529)">
		<stop  offset="0" style="stop-color:#43E8ED"/>
		<stop  offset="0.4464" style="stop-color:#349FF6"/>
		<stop  offset="0.8197" style="stop-color:#2868FC"/>
		<stop  offset="1" style="stop-color:#2453FF"/>
	</linearGradient>
	<path class="st9" d="M2244.91,1858.94c12.76-6.15,24.57-11.22,37.34-17.37l-38.92-960.53c-13.17-3.85-26.34-7.7-38.47-10.64
		C2204.86,870.39,2244.91,1858.94,2244.91,1858.94z"/>
	
		<linearGradient id="SVGID_10_" gradientUnits="userSpaceOnUse" x1="1456.9795" y1="-30.451" x2="2045.5853" y2="-30.451" gradientTransform="matrix(0.66 -0.7512 -0.7512 -0.66 547.3607 2704.4529)">
		<stop  offset="0" style="stop-color:#43E8ED"/>
		<stop  offset="0.4464" style="stop-color:#349FF6"/>
		<stop  offset="0.8197" style="stop-color:#2868FC"/>
		<stop  offset="1" style="stop-color:#2453FF"/>
	</linearGradient>
	<path class="st10" d="M1744.53,1812.99l-32.75-808.45c-12.52,12.16-26,25.4-37.48,38.47l29.92,738.41
		C1716.67,1792.37,1730.08,1802.22,1744.53,1812.99z"/>
	
		<linearGradient id="SVGID_11_" gradientUnits="userSpaceOnUse" x1="1926.7043" y1="-484.3468" x2="2528.3579" y2="-484.3468" gradientTransform="matrix(0.66 -0.7512 -0.7512 -0.66 547.3607 2704.4529)">
		<stop  offset="0" style="stop-color:#43E8ED"/>
		<stop  offset="0.4464" style="stop-color:#349FF6"/>
		<stop  offset="0.8197" style="stop-color:#2868FC"/>
		<stop  offset="1" style="stop-color:#2453FF"/>
	</linearGradient>
	<path class="st11" d="M2395.19,1763.26l37.56-36.47l-30.73-758.42c-12.46-10.94-25.87-20.8-40.24-29.56
		C2361.79,938.8,2395.19,1763.26,2395.19,1763.26z"/>
	
		<linearGradient id="SVGID_12_" gradientUnits="userSpaceOnUse" x1="1500.4724" y1="74.5599" x2="1781.7274" y2="74.5599" gradientTransform="matrix(0.66 -0.7512 -0.7512 -0.66 547.3607 2704.4529)">
		<stop  offset="0" style="stop-color:#43E8ED"/>
		<stop  offset="0.4464" style="stop-color:#349FF6"/>
		<stop  offset="0.8197" style="stop-color:#2868FC"/>
		<stop  offset="1" style="stop-color:#2453FF"/>
	</linearGradient>
	<path class="st12" d="M1566.68,1228.3c-21.51,62.16-32.8,129.43-30.04,197.47c2.76,68.04,19.4,132.83,45.77,190.74
		C1582.41,1616.51,1566.68,1228.3,1566.68,1228.3z"/>
	
		<linearGradient id="SVGID_13_" gradientUnits="userSpaceOnUse" x1="1460.5966" y1="21.3636" x2="1933.0398" y2="21.3636" gradientTransform="matrix(0.66 -0.7512 -0.7512 -0.66 547.3607 2704.4529)">
		<stop  offset="0" style="stop-color:#43E8ED"/>
		<stop  offset="0.4464" style="stop-color:#349FF6"/>
		<stop  offset="0.8197" style="stop-color:#2868FC"/>
		<stop  offset="1" style="stop-color:#2453FF"/>
	</linearGradient>
	<path class="st13" d="M1623.4,1689.19c12.78,18.95,25.48,35.9,41.13,51.58l-26.35-650.36c-13.23,19.25-24.47,38.32-36.67,58.48
		C1601.51,1148.89,1623.4,1689.19,1623.4,1689.19z"/>
	
		<linearGradient id="SVGID_14_" gradientUnits="userSpaceOnUse" x1="1623.7028" y1="-281.9245" x2="2406.5774" y2="-281.9245" gradientTransform="matrix(0.66 -0.7512 -0.7512 -0.66 547.3607 2704.4529)">
		<stop  offset="0" style="stop-color:#43E8ED"/>
		<stop  offset="0.4464" style="stop-color:#349FF6"/>
		<stop  offset="0.8197" style="stop-color:#2868FC"/>
		<stop  offset="1" style="stop-color:#2453FF"/>
	</linearGradient>
	<path class="st14" d="M2092.44,1900.59c12.93-2.15,25.93-2.3,37.82-5.37L2088.1,854.65c-13.01,0.15-24.98,1.21-37.98,1.36
		L2092.44,1900.59z"/>
	
		<linearGradient id="SVGID_15_" gradientUnits="userSpaceOnUse" x1="1467.1278" y1="-79.5022" x2="2138.3704" y2="-79.5022" gradientTransform="matrix(0.66 -0.7512 -0.7512 -0.66 547.3607 2704.4529)">
		<stop  offset="0" style="stop-color:#43E8ED"/>
		<stop  offset="0.4464" style="stop-color:#349FF6"/>
		<stop  offset="0.8197" style="stop-color:#2868FC"/>
		<stop  offset="1" style="stop-color:#2453FF"/>
	</linearGradient>
	<path class="st15" d="M1783.57,1837.64c12.29,6.94,25.63,14.8,38.88,20.65l-36.97-912.5c-12.68,8.16-25.37,16.31-36.93,27.38
		C1748.55,973.16,1783.57,1837.64,1783.57,1837.64z"/>
	
		<linearGradient id="SVGID_16_" gradientUnits="userSpaceOnUse" x1="2177.5142" y1="-587.976" x2="2495.0134" y2="-587.976" gradientTransform="matrix(0.66 -0.7512 -0.7512 -0.66 547.3607 2704.4529)">
		<stop  offset="0" style="stop-color:#43E8ED"/>
		<stop  offset="0.4464" style="stop-color:#349FF6"/>
		<stop  offset="0.8197" style="stop-color:#2868FC"/>
		<stop  offset="1" style="stop-color:#2453FF"/>
	</linearGradient>
	<path class="st16" d="M2539.98,1556.6c28.2-69.78,43.16-145.42,40-223.46c-3.16-78.04-24.12-150.49-57.75-214.78
		C2522.22,1118.36,2539.98,1556.6,2539.98,1556.6z"/>
	
		<linearGradient id="SVGID_17_" gradientUnits="userSpaceOnUse" x1="1571.5111" y1="-231.4916" x2="2352.936" y2="-231.4916" gradientTransform="matrix(0.66 -0.7512 -0.7512 -0.66 547.3607 2704.4529)">
		<stop  offset="0" style="stop-color:#43E8ED"/>
		<stop  offset="0.4464" style="stop-color:#349FF6"/>
		<stop  offset="0.8197" style="stop-color:#2868FC"/>
		<stop  offset="1" style="stop-color:#2453FF"/>
	</linearGradient>
	<path class="st17" d="M2016.47,1903.32c13.01-0.15,26.01-0.3,39.02-0.45l-42.24-1042.57l-38.78,6.46
		C1974.47,866.75,2016.47,1903.32,2016.47,1903.32z"/>
	
		<linearGradient id="SVGID_18_" gradientUnits="userSpaceOnUse" x1="1526.5684" y1="-181.0588" x2="2290.5959" y2="-181.0588" gradientTransform="matrix(0.66 -0.7512 -0.7512 -0.66 547.3607 2704.4529)">
		<stop  offset="0" style="stop-color:#43E8ED"/>
		<stop  offset="0.4464" style="stop-color:#349FF6"/>
		<stop  offset="0.8197" style="stop-color:#2868FC"/>
		<stop  offset="1" style="stop-color:#2453FF"/>
	</linearGradient>
	<path class="st18" d="M1939.06,1895.13c13.09,1.85,25.22,4.79,39.27,5.55l-41.51-1024.56c-12.85,4.15-25.69,8.31-37.5,13.37
		C1899.32,889.49,1939.06,1895.13,1939.06,1895.13z"/>
	
		<linearGradient id="SVGID_19_" gradientUnits="userSpaceOnUse" x1="1491.7739" y1="-129.9351" x2="2219.5574" y2="-129.9351" gradientTransform="matrix(0.66 -0.7512 -0.7512 -0.66 547.3607 2704.4529)">
		<stop  offset="0" style="stop-color:#43E8ED"/>
		<stop  offset="0.4464" style="stop-color:#349FF6"/>
		<stop  offset="0.8197" style="stop-color:#2868FC"/>
		<stop  offset="1" style="stop-color:#2453FF"/>
	</linearGradient>
	<path class="st19" d="M1862.12,1873.84c12.21,4.94,25.38,8.79,38.55,12.64l-39.81-982.54c-12.76,6.15-25.53,12.31-37.25,19.37
		C1823.61,923.32,1862.12,1873.84,1862.12,1873.84z"/>
</g>
</svg>
