<?xml version="1.0" encoding="utf-8"?>
<!-- Generator: Adobe Illustrator 24.0.1, SVG Export Plug-In . SVG Version: 6.00 Build 0)  -->
<svg version="1.1" id="Layer_1" xmlns="http://www.w3.org/2000/svg" xmlns:xlink="http://www.w3.org/1999/xlink" x="0px" y="0px"
	 viewBox="0 0 1920 800" style="enable-background:new 0 0 1920 800;" xml:space="preserve">
<style type="text/css">
	.st0{fill:#5ECBF4;stroke:#224099;stroke-width:6.384;stroke-miterlimit:10;}
	.st1{fill:#FFFFFF;stroke:#224099;stroke-width:6.384;stroke-miterlimit:10;}
	.st2{fill:none;stroke:#224099;stroke-width:6.384;stroke-miterlimit:10;}
	.st3{fill:#FFB445;}
	.st4{fill:#003781;}
	.st5{fill:#FFFFFF;}
	.st6{fill:#84D0F0;}
	.st7{fill:#A2DBF7;}
	.st8{fill:#FF6171;}
	.st9{fill:none;stroke:#224099;stroke-width:6.384;stroke-linecap:round;stroke-linejoin:round;stroke-miterlimit:10;}
</style>
<path class="st0" d="M659.07,572.31c0-1.9-0.1-3.78-0.28-5.63l13.21-3.28l-5.93-21.47l-13.46,3.34
	c-2.84-5.61-6.54-10.76-10.93-15.29l8.65-10.63l-18.51-13.56l-8.75,10.76c-5.67-2.75-11.79-4.73-18.25-5.83v-13.68h-23.39v13.68
	c-6.13,1.04-11.98,2.88-17.4,5.41l-8.59-10.88l-18.72,13.31l8.49,10.76c-3.23,3.24-6.11,6.8-8.55,10.64l-13.14-4.59l-8.08,20.83
	l12.89,4.51c-0.75,3.76-1.16,7.64-1.16,11.61c0,1.37,0.07,2.73,0.16,4.08l-13.08,3.25l5.93,21.48l12.79-3.18
	c2.77,5.85,6.46,11.24,10.9,15.97l-7.95,9.78l18.51,13.57l7.83-9.63c5.91,2.97,12.36,5.11,19.16,6.26V646h23.39v-12.11
	c6.48-1.1,12.63-3.09,18.3-5.85l7.69,9.74l18.72-13.31l-7.79-9.88c3.3-3.42,6.2-7.2,8.64-11.25l12.35,4.32l8.08-20.83l-12.61-4.4
	C658.76,579.13,659.07,575.75,659.07,572.31z M593.12,614.14c-24.8,0-44.9-19.09-44.9-42.63c0-23.54,20.1-42.62,44.9-42.62
	c24.8,0,44.91,19.08,44.91,42.62C638.03,595.05,617.92,614.14,593.12,614.14z"/>
<g>
	<path class="st0" d="M1516.6,542.01c0,7.18-6.3,12.99-14.07,12.99h-85.75c-7.77,0-14.07-5.81-14.07-12.99V467.9
		c0-7.18,6.3-12.99,14.07-12.99h85.75c7.77,0,14.07,5.81,14.07,12.99V542.01z"/>
	<path class="st1" d="M1494.51,527.63c0,4.4-3.86,7.95-8.61,7.95h-52.47c-4.76,0-8.62-3.56-8.62-7.95v-45.35
		c0-4.39,3.86-7.95,8.62-7.95h52.47c4.75,0,8.61,3.56,8.61,7.95V527.63z"/>
	<path class="st0" d="M1479.6,505.19c0-0.55-0.03-1.11-0.08-1.65l3.99-0.97l-1.79-6.32l-4.07,0.99c-0.86-1.65-1.98-3.17-3.3-4.51
		l2.61-3.12l-5.6-3.99l-2.65,3.17c-1.71-0.81-3.56-1.39-5.52-1.72v-4.02h-7.07v4.02c-1.86,0.3-3.62,0.85-5.27,1.59l-2.6-3.2
		l-5.66,3.91l2.57,3.17c-0.98,0.96-1.85,2-2.59,3.13l-3.98-1.35l-2.44,6.14l3.9,1.32c-0.23,1.11-0.34,2.25-0.34,3.41
		c0,0.4,0.01,0.8,0.05,1.21l-3.96,0.95l1.79,6.32l3.87-0.94c0.84,1.72,1.96,3.31,3.3,4.7l-2.41,2.88l5.6,3.99l2.37-2.83
		c1.79,0.88,3.74,1.5,5.8,1.85v3.56h7.07v-3.56c1.96-0.33,3.82-0.91,5.53-1.72l2.33,2.87l5.66-3.92l-2.36-2.91
		c1-1,1.88-2.12,2.61-3.31l3.73,1.27l2.44-6.13l-3.81-1.3C1479.51,507.2,1479.6,506.21,1479.6,505.19z M1459.65,517.5
		c-7.5,0-13.58-5.61-13.58-12.54c0-6.93,6.08-12.55,13.58-12.55c7.5,0,13.58,5.61,13.58,12.55
		C1473.24,511.89,1467.16,517.5,1459.65,517.5z"/>
	<g>
		<line class="st0" x1="1419.59" y1="437.92" x2="1419.59" y2="454.91"/>
		<line class="st0" x1="1432.95" y1="437.92" x2="1432.95" y2="454.91"/>
		<line class="st0" x1="1446.3" y1="437.92" x2="1446.3" y2="454.91"/>
		<line class="st0" x1="1459.65" y1="437.92" x2="1459.65" y2="454.91"/>
		<line class="st0" x1="1473.01" y1="437.92" x2="1473.01" y2="454.91"/>
		<line class="st0" x1="1486.36" y1="437.92" x2="1486.36" y2="454.91"/>
		<line class="st0" x1="1499.72" y1="437.92" x2="1499.72" y2="454.91"/>
	</g>
	<g>
		<line class="st0" x1="1535" y1="467.96" x2="1516.6" y2="467.96"/>
		<line class="st0" x1="1535" y1="480.29" x2="1516.6" y2="480.29"/>
		<line class="st0" x1="1535" y1="492.63" x2="1516.6" y2="492.63"/>
		<line class="st0" x1="1535" y1="504.96" x2="1516.6" y2="504.96"/>
		<line class="st0" x1="1535" y1="517.29" x2="1516.6" y2="517.29"/>
		<line class="st0" x1="1535" y1="529.62" x2="1516.6" y2="529.62"/>
		<line class="st0" x1="1535" y1="541.95" x2="1516.6" y2="541.95"/>
	</g>
	<g>
		<line class="st0" x1="1499.72" y1="572" x2="1499.72" y2="555.01"/>
		<line class="st0" x1="1486.36" y1="572" x2="1486.36" y2="555.01"/>
		<line class="st0" x1="1473.01" y1="572" x2="1473.01" y2="555.01"/>
		<line class="st0" x1="1459.65" y1="572" x2="1459.65" y2="555.01"/>
		<line class="st0" x1="1446.3" y1="572" x2="1446.3" y2="555.01"/>
		<line class="st0" x1="1432.95" y1="572" x2="1432.95" y2="555.01"/>
		<line class="st0" x1="1419.59" y1="572" x2="1419.59" y2="555.01"/>
	</g>
	<g>
		<line class="st0" x1="1384.31" y1="541.95" x2="1402.71" y2="541.95"/>
		<line class="st0" x1="1384.31" y1="529.62" x2="1402.71" y2="529.62"/>
		<line class="st0" x1="1384.31" y1="517.29" x2="1402.71" y2="517.29"/>
		<line class="st0" x1="1384.31" y1="504.96" x2="1402.71" y2="504.96"/>
		<line class="st0" x1="1384.31" y1="492.63" x2="1402.71" y2="492.63"/>
		<line class="st0" x1="1384.31" y1="480.29" x2="1402.71" y2="480.29"/>
		<line class="st0" x1="1384.31" y1="467.96" x2="1402.71" y2="467.96"/>
	</g>
	<g>
		<path class="st2" d="M1420.98,469.23c0,2.12-1.87,3.84-4.17,3.84c-2.3,0-4.16-1.72-4.16-3.84c0-2.13,1.86-3.85,4.16-3.85
			C1419.11,465.38,1420.98,467.1,1420.98,469.23z"/>
		<path class="st2" d="M1420.98,540.7c0,2.12-1.87,3.84-4.17,3.84c-2.3,0-4.16-1.72-4.16-3.84c0-2.12,1.86-3.85,4.16-3.85
			C1419.11,536.85,1420.98,538.58,1420.98,540.7z"/>
	</g>
	<g>
		<path class="st2" d="M1508.05,469.23c0,2.12-1.87,3.84-4.17,3.84c-2.3,0-4.17-1.72-4.17-3.84c0-2.13,1.87-3.85,4.17-3.85
			C1506.18,465.38,1508.05,467.1,1508.05,469.23z"/>
		<path class="st2" d="M1508.05,540.7c0,2.12-1.87,3.84-4.17,3.84c-2.3,0-4.17-1.72-4.17-3.84c0-2.12,1.87-3.85,4.17-3.85
			C1506.18,536.85,1508.05,538.58,1508.05,540.7z"/>
	</g>
</g>
<g>
	<polygon class="st3" points="1013.74,504.58 948.68,496.1 961.2,423.74 1044.6,434.6 1034.93,490.52 	"/>
	<polygon class="st4" points="1013.74,504.58 1034.93,490.52 1016.94,486.03 	"/>
</g>
<g>
	<polygon class="st5" points="997.63,545.49 939.21,571.71 900.46,506.72 975.36,473.09 1005.3,523.31 	"/>
	<polygon class="st4" points="997.63,545.49 1005.3,523.31 987.7,528.83 	"/>
</g>
<g>
	<polygon class="st5" points="540.07,352 557,236.3 462.96,221.97 446.01,337.75 	"/>
	<polygon class="st6" points="546.82,254.11 467.12,241.98 467.56,238.98 547.26,251.11 	"/>
	<polygon class="st6" points="545.57,262.68 465.87,250.55 466.31,247.55 546,259.68 	"/>
	<polygon class="st4" points="543.19,274.1 529.13,271.97 529.54,269.13 543.6,271.26 	"/>
	<polygon class="st4" points="499.88,267.54 485.82,265.41 486.23,262.57 500.3,264.7 	"/>
	<polygon class="st4" points="521.54,270.82 507.47,268.69 507.89,265.85 521.95,267.98 	"/>
	<polygon class="st4" points="478.23,264.26 464.16,262.13 464.58,259.29 478.64,261.42 	"/>
	<polygon class="st7" points="476.14,278.61 462.08,276.48 462.49,273.64 476.55,275.77 	"/>
	<polygon class="st7" points="475.15,285.43 461.08,283.3 461.5,280.46 475.56,282.59 	"/>
	<polygon class="st3" points="474.16,292.25 460.09,290.12 460.51,287.28 474.57,289.41 	"/>
	<polygon class="st7" points="473.16,299.07 459.1,296.94 459.51,294.1 473.58,296.23 	"/>
	<polygon class="st7" points="472.17,305.89 458.11,303.76 458.52,300.93 472.58,303.06 	"/>
	<polygon class="st7" points="471.18,312.72 457.12,310.59 457.53,307.75 471.59,309.88 	"/>
	<polygon class="st3" points="470.19,319.54 456.12,317.41 456.54,314.57 470.6,316.7 	"/>
	<polygon class="st7" points="469.19,326.36 455.13,324.23 455.54,321.39 469.61,323.52 	"/>
	<polygon class="st3" points="497.8,281.89 483.73,279.76 484.14,276.92 498.21,279.05 	"/>
	<polygon class="st3" points="496.8,288.71 482.74,286.58 483.15,283.74 497.22,285.87 	"/>
	<polygon class="st7" points="495.81,295.53 481.75,293.4 482.16,290.56 496.22,292.69 	"/>
	<polygon class="st8" points="494.82,302.35 480.75,300.22 481.17,297.38 495.23,299.51 	"/>
	<polygon class="st7" points="493.83,309.17 479.76,307.04 480.17,304.21 494.24,306.34 	"/>
	<polygon class="st7" points="492.83,316 478.77,313.87 479.18,311.03 493.25,313.16 	"/>
	<polygon class="st7" points="491.84,322.82 477.78,320.69 478.19,317.85 492.25,319.98 	"/>
	<polygon class="st7" points="490.85,329.64 476.78,327.51 477.2,324.67 491.26,326.8 	"/>
	<polygon class="st7" points="519.45,285.17 505.39,283.04 505.8,280.2 519.86,282.33 	"/>
	<polygon class="st7" points="518.46,291.99 504.39,289.86 504.81,287.02 518.87,289.15 	"/>
	<polygon class="st8" points="517.46,298.81 503.4,296.68 503.81,293.84 517.88,295.97 	"/>
	<polygon class="st7" points="516.47,305.63 502.41,303.5 502.82,300.66 516.89,302.79 	"/>
	<polygon class="st7" points="515.48,312.45 501.42,310.32 501.83,307.49 515.89,309.62 	"/>
	<polygon class="st7" points="514.49,319.28 500.42,317.15 500.84,314.31 514.9,316.44 	"/>
	<polygon class="st7" points="513.5,326.1 499.43,323.97 499.84,321.13 513.91,323.26 	"/>
	<polygon class="st7" points="512.5,332.92 498.44,330.79 498.85,327.95 512.92,330.08 	"/>
	<polygon class="st7" points="541.1,288.45 527.04,286.32 527.45,283.48 541.52,285.61 	"/>
	<polygon class="st7" points="540.11,295.27 526.05,293.14 526.46,290.3 540.52,292.43 	"/>
	<polygon class="st7" points="539.12,302.09 525.05,299.96 525.47,297.12 539.53,299.25 	"/>
	<polygon class="st7" points="538.13,308.91 524.06,306.78 524.48,303.94 538.54,306.07 	"/>
	<polygon class="st8" points="537.13,315.73 523.07,313.6 523.48,310.77 537.55,312.9 	"/>
	<polygon class="st7" points="536.14,322.56 522.08,320.43 522.49,317.59 536.55,319.72 	"/>
	<polygon class="st7" points="535.15,329.38 521.09,327.25 521.5,324.41 535.56,326.54 	"/>
	<polygon class="st3" points="534.16,336.2 520.09,334.07 520.51,331.23 534.57,333.36 	"/>
	<polygon class="st7" points="511.16,276.82 463.09,269.54 463.5,266.7 511.57,273.98 	"/>
</g>
<path class="st4" d="M1037.97,155.54l-2.02-0.04c-0.26-0.48-0.58-0.94-0.96-1.37l1.04-1.37c0.44-0.58,0.29-1.3-0.37-1.69l-1.88-1.13
	c-0.32-0.19-0.71-0.3-1.13-0.29c-0.44,0.01-0.84,0.14-1.17,0.37l-1.55,1.07c-0.67-0.19-1.36-0.32-2.07-0.41l-0.49-1.45
	c-0.21-0.63-0.99-1.01-1.85-0.92l-2.5,0.27c-0.86,0.09-1.54,0.64-1.61,1.29l-0.18,1.56c-0.65,0.23-1.27,0.5-1.86,0.82l-1.73-0.71
	c-0.31-0.13-0.68-0.18-1.05-0.14c-0.47,0.05-0.9,0.24-1.2,0.52l-1.63,1.53c-0.56,0.52-0.56,1.25-0.01,1.73l1.32,1.13
	c-0.28,0.51-0.48,1.02-0.63,1.55l-1.94,0.46c-0.84,0.2-1.4,0.82-1.33,1.47l0.2,1.89c0.07,0.65,0.75,1.13,1.61,1.15l2.05,0.04
	c0.26,0.48,0.59,0.94,0.97,1.37l-1.04,1.35c-0.44,0.58-0.29,1.3,0.37,1.69l1.91,1.14c0.36,0.22,0.81,0.31,1.28,0.26
	c0.37-0.04,0.71-0.16,0.99-0.36l1.57-1.08c0.63,0.17,1.27,0.3,1.94,0.38l0.49,1.47c0.21,0.63,0.99,1.01,1.85,0.92l2.51-0.27
	c0.86-0.09,1.54-0.64,1.61-1.29l0.18-1.54c0.65-0.23,1.28-0.5,1.87-0.81l1.74,0.71c0.31,0.13,0.68,0.18,1.05,0.14
	c0.47-0.05,0.89-0.24,1.2-0.52l1.62-1.53c0.56-0.52,0.56-1.25,0.01-1.73l-1.31-1.12c0.28-0.51,0.5-1.02,0.64-1.55l1.97-0.47
	c0.84-0.2,1.4-0.82,1.32-1.47l-0.2-1.89C1039.5,156.04,1038.83,155.55,1037.97,155.54z M1025.87,163.03
	c-2.83,0.31-5.31-1.18-5.54-3.31c-0.23-2.14,1.88-4.11,4.71-4.42c2.83-0.31,5.31,1.18,5.54,3.31
	C1030.81,160.75,1028.7,162.73,1025.87,163.03z"/>
<g>
	<path class="st5" d="M1321.2,319.6l56.97,10.04c6.51,1.15,10.55,9.2,9.03,18.01l-6.42,37.33c-1.52,8.82-8.04,15.07-14.57,13.94l0,0
		l-3.06,17.75l-10.08-20.01l-43.89-7.82c-6.5-1.16-10.53-9.21-9.02-18l6.42-37.3C1308.12,324.69,1314.67,318.44,1321.2,319.6z"/>
	<g>
		
			<rect x="1313.11" y="349" transform="matrix(-0.9855 -0.1696 0.1696 -0.9855 2607.9233 925.1142)" class="st4" width="60.72" height="4.36"/>
		
			<rect x="1310.28" y="365.37" transform="matrix(-0.9855 -0.1696 0.1696 -0.9855 2599.5188 957.2785)" class="st4" width="60.72" height="4.52"/>
	</g>
</g>
<g>
	<g>
		<path class="st5" d="M767.46,135.67c-3.5,0-6.35-3.04-6.35-6.77c0-3.73,2.85-6.77,6.35-6.77c3.5,0,6.35,3.04,6.35,6.77
			C773.81,132.63,770.96,135.67,767.46,135.67z M767.46,124.81c-2.12,0-3.84,1.84-3.84,4.09c0,2.26,1.72,4.09,3.84,4.09
			c2.12,0,3.84-1.84,3.84-4.09C771.3,126.64,769.58,124.81,767.46,124.81z"/>
	</g>
	<g>
		<path class="st5" d="M651.16,119.15c-3.5,0-6.35-3.04-6.35-6.77c0-3.73,2.85-6.77,6.35-6.77c3.5,0,6.35,3.04,6.35,6.77
			C657.52,116.11,654.67,119.15,651.16,119.15z M651.16,108.29c-2.12,0-3.84,1.84-3.84,4.09c0,2.26,1.72,4.09,3.84,4.09
			c2.12,0,3.84-1.84,3.84-4.09C655,110.13,653.28,108.29,651.16,108.29z"/>
	</g>
	<g>
		<path class="st5" d="M1011.65,559c-3.5,0-6.35-3.04-6.35-6.77c0-3.73,2.85-6.77,6.35-6.77c3.5,0,6.35,3.04,6.35,6.77
			C1018,555.96,1015.15,559,1011.65,559z M1011.65,548.14c-2.12,0-3.84,1.84-3.84,4.09c0,2.26,1.72,4.09,3.84,4.09
			c2.12,0,3.84-1.84,3.84-4.09C1015.49,549.98,1013.76,548.14,1011.65,548.14z"/>
	</g>
	<g>
		<path class="st5" d="M1350.88,193.56c-3.5,0-6.35-3.04-6.35-6.77c0-3.73,2.85-6.77,6.35-6.77c3.5,0,6.35,3.04,6.35,6.77
			C1357.23,190.52,1354.38,193.56,1350.88,193.56z M1350.88,182.7c-2.12,0-3.84,1.84-3.84,4.09c0,2.26,1.72,4.09,3.84,4.09
			c2.12,0,3.84-1.84,3.84-4.09C1354.72,184.54,1353,182.7,1350.88,182.7z"/>
	</g>
	<g>
		<path class="st5" d="M821.7,492.92c-3.5,0-6.35-3.04-6.35-6.77c0-3.73,2.85-6.77,6.35-6.77c3.5,0,6.35,3.04,6.35,6.77
			C828.05,489.89,825.2,492.92,821.7,492.92z M821.7,482.07c-2.12,0-3.84,1.84-3.84,4.09c0,2.26,1.72,4.09,3.84,4.09
			c2.12,0,3.84-1.84,3.84-4.09C825.54,483.9,823.81,482.07,821.7,482.07z"/>
	</g>
	<g>
		<path class="st5" d="M1290.8,424.75c-3.5,0-6.35-3.04-6.35-6.77c0-3.73,2.85-6.77,6.35-6.77c3.5,0,6.35,3.04,6.35,6.77
			C1297.15,421.71,1294.3,424.75,1290.8,424.75z M1290.8,413.89c-2.12,0-3.84,1.84-3.84,4.09c0,2.26,1.72,4.09,3.84,4.09
			c2.12,0,3.84-1.84,3.84-4.09C1294.64,415.72,1292.91,413.89,1290.8,413.89z"/>
	</g>
	<g>
		<path class="st5" d="M1019.47,416.53c-3.5,0-6.35-3.04-6.35-6.77c0-3.73,2.85-6.77,6.35-6.77c3.5,0,6.35,3.04,6.35,6.77
			C1025.83,413.49,1022.98,416.53,1019.47,416.53z M1019.47,405.67c-2.12,0-3.84,1.84-3.84,4.09c0,2.26,1.72,4.09,3.84,4.09
			c2.12,0,3.84-1.84,3.84-4.09C1023.31,407.5,1021.59,405.67,1019.47,405.67z"/>
	</g>
	<g>
		<path class="st5" d="M1389.65,544.58c-3.5,0-6.35-3.04-6.35-6.77c0-3.73,2.85-6.77,6.35-6.77c3.5,0,6.35,3.04,6.35,6.77
			C1396,541.55,1393.15,544.58,1389.65,544.58z M1389.65,533.73c-2.12,0-3.84,1.84-3.84,4.09c0,2.26,1.72,4.09,3.84,4.09
			c2.12,0,3.84-1.84,3.84-4.09C1393.49,535.56,1391.77,533.73,1389.65,533.73z"/>
	</g>
	<g>
		<path class="st4" d="M1100.68,190.35c-3.5,0-6.35-3.04-6.35-6.77c0-3.73,2.85-6.77,6.35-6.77c3.5,0,6.35,3.04,6.35,6.77
			C1107.04,187.31,1104.19,190.35,1100.68,190.35z M1100.68,179.49c-2.12,0-3.84,1.84-3.84,4.09c0,2.26,1.72,4.09,3.84,4.09
			c2.12,0,3.84-1.84,3.84-4.09C1104.52,181.32,1102.8,179.49,1100.68,179.49z"/>
	</g>
	<g>
		<path class="st4" d="M742.26,433.01c-3.5,0-6.35-3.04-6.35-6.77c0-3.73,2.85-6.77,6.35-6.77s6.35,3.04,6.35,6.77
			C748.62,429.97,745.77,433.01,742.26,433.01z M742.26,422.15c-2.12,0-3.84,1.84-3.84,4.09c0,2.26,1.72,4.09,3.84,4.09
			s3.84-1.84,3.84-4.09C746.1,423.98,744.38,422.15,742.26,422.15z"/>
	</g>
	<path class="st5" d="M835.92,91.77h-2.67v-2.84c0-1.11-0.84-2.01-1.88-2.01s-1.88,0.9-1.88,2.01v2.84h-2.67
		c-1.04,0-1.88,0.9-1.88,2.01c0,1.11,0.84,2.01,1.88,2.01h2.67v2.84c0,1.11,0.84,2.01,1.88,2.01s1.88-0.9,1.88-2.01v-2.84h2.67
		c1.04,0,1.88-0.9,1.88-2.01C837.81,92.67,836.96,91.77,835.92,91.77z"/>
	<path class="st5" d="M1016.02,240.15h-2.67v-2.84c0-1.11-0.84-2.01-1.88-2.01c-1.04,0-1.88,0.9-1.88,2.01v2.84h-2.67
		c-1.04,0-1.88,0.9-1.88,2.01c0,1.11,0.84,2.01,1.88,2.01h2.67V247c0,1.11,0.84,2.01,1.88,2.01c1.04,0,1.88-0.9,1.88-2.01v-2.84
		h2.67c1.04,0,1.88-0.9,1.88-2.01C1017.9,241.05,1017.06,240.15,1016.02,240.15z"/>
	<path class="st5" d="M692.33,342.61h-2.67v-2.84c0-1.11-0.84-2.01-1.88-2.01s-1.88,0.9-1.88,2.01v2.84h-2.67
		c-1.04,0-1.88,0.9-1.88,2.01c0,1.11,0.84,2.01,1.88,2.01h2.67v2.84c0,1.11,0.84,2.01,1.88,2.01s1.88-0.9,1.88-2.01v-2.84h2.67
		c1.04,0,1.88-0.9,1.88-2.01C694.21,343.51,693.37,342.61,692.33,342.61z"/>
	<path class="st5" d="M1345.64,307.63h-2.67v-2.84c0-1.11-0.84-2.01-1.88-2.01s-1.88,0.9-1.88,2.01v2.84h-2.67
		c-1.04,0-1.88,0.9-1.88,2.01c0,1.11,0.84,2.01,1.88,2.01h2.67v2.84c0,1.11,0.84,2.01,1.88,2.01s1.88-0.9,1.88-2.01v-2.84h2.67
		c1.04,0,1.88-0.9,1.88-2.01C1347.52,308.52,1346.68,307.63,1345.64,307.63z"/>
	<path class="st5" d="M1256.53,110.36h-2.67v-2.84c0-1.11-0.84-2.01-1.88-2.01c-1.04,0-1.88,0.9-1.88,2.01v2.84h-2.67
		c-1.04,0-1.88,0.9-1.88,2.01c0,1.11,0.84,2.01,1.88,2.01h2.67v2.84c0,1.11,0.84,2.01,1.88,2.01c1.04,0,1.88-0.9,1.88-2.01v-2.84
		h2.67c1.04,0,1.88-0.9,1.88-2.01C1258.41,111.25,1257.57,110.36,1256.53,110.36z"/>
	<path class="st4" d="M936.82,382.92h-2.67v-2.84c0-1.11-0.84-2.01-1.88-2.01c-1.04,0-1.88,0.9-1.88,2.01v2.84h-2.67
		c-1.04,0-1.88,0.9-1.88,2.01c0,1.11,0.84,2.01,1.88,2.01h2.67v2.84c0,1.11,0.84,2.01,1.88,2.01c1.04,0,1.88-0.9,1.88-2.01v-2.84
		h2.67c1.04,0,1.88-0.9,1.88-2.01C938.7,383.81,937.86,382.92,936.82,382.92z"/>
	<path class="st4" d="M1210.01,541.91h-2.67v-2.84c0-1.11-0.84-2.01-1.88-2.01s-1.88,0.9-1.88,2.01v2.84h-2.67
		c-1.04,0-1.88,0.9-1.88,2.01c0,1.11,0.84,2.01,1.88,2.01h2.67v2.84c0,1.11,0.84,2.01,1.88,2.01s1.88-0.9,1.88-2.01v-2.84h2.67
		c1.04,0,1.88-0.9,1.88-2.01C1211.89,542.81,1211.05,541.91,1210.01,541.91z"/>
	<path class="st4" d="M795.22,543.97h-2.67v-2.84c0-1.11-0.84-2.01-1.88-2.01c-1.04,0-1.88,0.9-1.88,2.01v2.84h-2.67
		c-1.04,0-1.88,0.9-1.88,2.01c0,1.11,0.84,2.01,1.88,2.01h2.67v2.84c0,1.11,0.84,2.01,1.88,2.01c1.04,0,1.88-0.9,1.88-2.01v-2.84
		h2.67c1.04,0,1.88-0.9,1.88-2.01C797.1,544.87,796.26,543.97,795.22,543.97z"/>
</g>
<path class="st9" d="M884.12,74.32L749.16,61.95c-4.87-0.45-9.12,2.61-9.51,6.84l-7.45,81.26c-0.39,4.23,3.24,8.01,8.11,8.46
	l91.7,8.4l-3.45,17.9l26.06-15.83l20.66,1.89c4.87,0.45,9.13-2.61,9.51-6.84l7.45-81.26C892.62,78.55,888.99,74.76,884.12,74.32z"/>
<path class="st0" d="M845.02,116.31c0-0.82-0.05-1.62-0.13-2.42l6.11-1.42l-2.74-9.23l-6.23,1.43c-1.31-2.41-3.02-4.63-5.05-6.58
	l4-4.57l-8.56-5.82l-4.05,4.62c-2.62-1.18-5.45-2.03-8.44-2.5v-5.88H809.1v5.88c-2.84,0.45-5.54,1.24-8.05,2.32l-3.97-4.68
	l-8.66,5.73l3.93,4.63c-1.49,1.39-2.83,2.92-3.96,4.57l-6.07-1.98l-3.74,8.96l5.96,1.94c-0.34,1.62-0.53,3.28-0.53,4.99
	c0,0.59,0.03,1.17,0.07,1.75l-6.05,1.4l2.74,9.24l5.92-1.37c1.28,2.52,2.99,4.83,5.05,6.87l-3.68,4.2l8.56,5.83l3.62-4.14
	c2.74,1.28,5.72,2.2,8.87,2.7V148h10.82v-5.21c3-0.47,5.84-1.33,8.47-2.51l3.56,4.19l8.66-5.73L837,134.5
	c1.53-1.47,2.87-3.09,4-4.83l5.71,1.86l3.74-8.96l-5.83-1.89C844.87,119.25,845.02,117.8,845.02,116.31z M814.51,134.3
	c-11.47,0-20.78-8.21-20.78-18.33s9.3-18.33,20.78-18.33c11.48,0,20.78,8.2,20.78,18.33S825.98,134.3,814.51,134.3z"/>
<g>
	<path class="st3" d="M1346.85,227.37c0.11-14.67-13.96-26.55-31.08-25.85c-15.13,0.62-27.51,11.42-28.16,24.56
		c-0.35,7.16,2.69,13.71,7.84,18.54c4.25,3.98,7.83,8.46,10.21,13.47l1.57,3.3l-0.04,4.87l7.74,0.04l3.99,0.02l7.74,0.04l0.04-4.87
		l1.08-2.19c2.71-5.49,6.68-10.4,11.33-14.81C1343.87,239.99,1346.8,233.99,1346.85,227.37z"/>
	<polygon class="st4" points="1327.32,274.34 1306.43,274.22 1306.52,261.57 1327.41,261.68 	"/>
	<g>
		<polygon class="st4" points="1320.51,267.38 1314.58,267.34 1304.15,223.8 1306.47,223.38 1316.51,265.3 1318.56,265.31 
			1328.02,222.66 1330.35,223.05 		"/>
	</g>
	<path class="st4" d="M1321.51,274.59c-0.02,2.22-2.11,4.02-4.67,4c-2.56-0.01-4.63-1.83-4.61-4.05c0.02-2.22,2.11-4.02,4.67-4
		C1319.47,270.56,1321.53,272.37,1321.51,274.59z"/>
	<g>
		<g>
			<g>
				<polygon class="st4" points="1318.51,191.94 1316.8,191.93 1316.96,170.88 1318.66,170.89 				"/>
			</g>
		</g>
		<g>
			<g>
				<polygon class="st4" points="1376.92,223.57 1352.66,223.44 1352.67,221.96 1376.93,222.09 				"/>
			</g>
			<g>
				<polygon class="st4" points="1282.19,223.05 1257.94,222.92 1257.95,221.44 1282.2,221.57 				"/>
			</g>
		</g>
		<g>
			<g>
				<polygon class="st4" points="1290.49,202.79 1272.34,188.83 1273.47,187.72 1291.62,201.68 				"/>
			</g>
		</g>
		<g>
			<g>
				<polygon class="st4" points="1341.43,200.11 1340.16,199.13 1356.24,183.37 1357.52,184.36 				"/>
			</g>
		</g>
	</g>
</g>
</svg>
