<?xml version="1.0" encoding="utf-8"?>
<!-- Generator: Adobe Illustrator 24.0.1, SVG Export Plug-In . SVG Version: 6.00 Build 0)  -->
<svg version="1.1" id="Layer_1" xmlns="http://www.w3.org/2000/svg" xmlns:xlink="http://www.w3.org/1999/xlink" x="0px" y="0px"
	 viewBox="0 0 1920 1080" style="enable-background:new 0 0 1920 1080;" xml:space="preserve">
<style type="text/css">
	.st0{display:none;}
	.st1{display:inline;fill:url(#SVGID_1_);}
	.st2{display:inline;fill:url(#SVGID_2_);}
	.st3{display:inline;fill:url(#SVGID_3_);}
	.st4{display:inline;fill:url(#SVGID_4_);}
	.st5{fill:url(#SVGID_5_);}
	.st6{fill:url(#SVGID_6_);}
	.st7{fill:url(#SVGID_7_);}
</style>
<g class="st0">
	
		<linearGradient id="SVGID_1_" gradientUnits="userSpaceOnUse" x1="192.3604" y1="-128.2644" x2="1925.6014" y2="-128.2644" gradientTransform="matrix(-0.3046 -0.526 -0.6106 0.3535 2103.0786 662.8909)">
		<stop  offset="0" style="stop-color:#0066FF"/>
		<stop  offset="1" style="stop-color:#FFA4D8"/>
	</linearGradient>
	<path class="st1" d="M1434.21-301.52c-70.11,49.01-92.21,146.42-51.72,225.4c31.12,61.15,90.46,97.07,151.73,100.19
		c30.46,1.66,56.25,24.83,63.07,55.52c5.17,23.73,14.27,47.65,27.14,69.89c37.76,65.23,100.67,106.49,168.52,117.68
		c39.38,6.39,72.1,34.96,86.92,72.89c6.3,16.64,14.82,32.99,25.11,48.3c66.64,99.48,195.87,134.51,297.86,81.4
		c115.96-60.21,154.67-207.82,87.3-324.19c-27.89-48.18-69.46-83-116-102.57c-47.11-19.73-74.44-70.22-64.88-120.28
		c10.96-58.31,0.31-121.91-35.59-177.33c-66.07-101.79-197.87-138.79-301.07-84.48c-11.97,6.44-22.8,13.2-33.35,21.29
		c-35.12,27.26-82.48,30.93-122.53,8.59C1560.9-340.73,1490.35-340.95,1434.21-301.52L1434.21-301.52z"/>
	
		<linearGradient id="SVGID_2_" gradientUnits="userSpaceOnUse" x1="192.0466" y1="144.8766" x2="1925.929" y2="144.8766" gradientTransform="matrix(-0.3046 -0.526 -0.6106 0.3535 2103.0786 662.8909)">
		<stop  offset="0" style="stop-color:#0066FF"/>
		<stop  offset="1" style="stop-color:#FFA4D8"/>
	</linearGradient>
	<path class="st2" d="M1773.62,395.64c-14.1-24.36-6.55-55.09,16.87-68.65c23.42-13.56,53.83-4.81,67.94,19.55
		c14.1,24.36,6.55,55.09-16.87,68.65S1787.72,419.99,1773.62,395.64z"/>
	
		<linearGradient id="SVGID_3_" gradientUnits="userSpaceOnUse" x1="192.0466" y1="332.7893" x2="1925.929" y2="332.7893" gradientTransform="matrix(-0.3046 -0.526 -0.6106 0.3535 2103.0786 662.8909)">
		<stop  offset="0" style="stop-color:#0066FF"/>
		<stop  offset="1" style="stop-color:#FFA4D8"/>
	</linearGradient>
	<path class="st3" d="M1536.73,211.64c-8.41-14.53-3.91-32.87,10.06-40.96c13.97-8.09,32.12-2.87,40.53,11.67
		c8.41,14.53,3.91,32.87-10.06,40.96C1563.29,231.4,1545.14,226.18,1536.73,211.64z"/>
	
		<linearGradient id="SVGID_4_" gradientUnits="userSpaceOnUse" x1="192.0466" y1="-228.6146" x2="1925.929" y2="-228.6146" gradientTransform="matrix(-0.3046 -0.526 -0.6106 0.3535 2103.0786 662.8909)">
		<stop  offset="0" style="stop-color:#0066FF"/>
		<stop  offset="1" style="stop-color:#FFA4D8"/>
	</linearGradient>
	<path class="st4" d="M1629.73-384.54c-13.27-22.92-6.16-51.85,15.88-64.61c22.04-12.76,50.67-4.52,63.94,18.4
		s6.16,51.85-15.88,64.61C1671.63-353.38,1643.01-361.62,1629.73-384.54z"/>
</g>
<linearGradient id="SVGID_5_" gradientUnits="userSpaceOnUse" x1="2064.509" y1="3010.6714" x2="3429.509" y2="3010.6714" gradientTransform="matrix(6.123234e-17 1 1 -6.123234e-17 -1124.269 -1326.509)">
	<stop  offset="0.323" style="stop-color:#FFB198"/>
	<stop  offset="1" style="stop-color:#FF3E89"/>
</linearGradient>
<path class="st5" d="M2136.09,926.48c-9.92,452.62,623.05,324.49,642.22,517.5c47.46,479.39-366.56,814.57-1003.69,585.07
	c-456.26-164.29-943.35-351.15-733.66-823.2C1282.03,663.09,2142.66,624.44,2136.09,926.48z"/>
<linearGradient id="SVGID_6_" gradientUnits="userSpaceOnUse" x1="902.1657" y1="1504.9672" x2="1416.9073" y2="1504.9672" gradientTransform="matrix(0.4132 0.9106 0.9106 -0.4132 -1670.2954 679.6554)">
	<stop  offset="0.323" style="stop-color:#FFB198"/>
	<stop  offset="1" style="stop-color:#FF3E89"/>
</linearGradient>
<path class="st6" d="M166.24,914.99c68,156.58,210,39.08,244.98,103.13c86.85,159.11,33.14,322.28-165.66,317.46
	c-142.35-3.44-296.12-11.04-316.02-197.49C-93.35,923.72,120.85,810.51,166.24,914.99z"/>
<linearGradient id="SVGID_7_" gradientUnits="userSpaceOnUse" x1="-432.9357" y1="1062" x2="848" y2="1062" gradientTransform="matrix(1 0 0 -1 0 1082)">
	<stop  offset="0" style="stop-color:#BFF0CF"/>
	<stop  offset="1" style="stop-color:#6FD6FF"/>
</linearGradient>
<path class="st7" d="M500.13-442.27c-55.74-2.11-108.58,11.27-156.19,36.62c-40.06,21.12-87.09,3.52-109.74-42.25
	C187.17-539.44,104.14-600,9.5-600c-61.55,0-118.45,26.05-163.16,69.01c-72,69.71-106.83,181.67-95.22,292.92l11.61,108.44
	c1.16,13.38-6.39,25.35-17.42,26.76C-354.55-90.2-432.94,11.9-432.94,137.24c0,107.03,58.06,198.57,137.61,229.55
	c8.13,2.82,14.52,11.27,16.26,21.12C-250.04,532.97-142.62,640-14.31,640c97.54,0,182.9-61.96,231.09-155.62
	c33.68-65.49,98.71-96.47,159.09-72.53c34.84,14.08,72.58,21.12,111.48,21.12c197.41,0,357.66-192.23,360.57-430.23
	C851.99-235.25,695.8-434.53,500.13-442.27L500.13-442.27z"/>
</svg>
