<?xml version="1.0" encoding="utf-8"?>
<!-- Generator: Adobe Illustrator 24.0.1, SVG Export Plug-In . SVG Version: 6.00 Build 0)  -->
<svg version="1.1" id="Layer_1" xmlns="http://www.w3.org/2000/svg" xmlns:xlink="http://www.w3.org/1999/xlink" x="0px" y="0px"
	 viewBox="0 0 1440 2960" style="enable-background:new 0 0 1440 2960;" xml:space="preserve">
<style type="text/css">
	.st0{fill:none;stroke:#F47373;stroke-width:2;stroke-linecap:round;stroke-linejoin:round;}
	.st1{fill:none;stroke:#F47373;stroke-width:2;stroke-linecap:round;stroke-linejoin:round;stroke-dasharray:9.964478e-03,11.9574;}
	.st2{fill:#FCC9B4;}
	.st3{fill:#F47373;}
</style>
<g>
	<g>
		<g>
			<line class="st0" x1="1.01" y1="446.31" x2="1.01" y2="446.31"/>
			<path class="st1" d="M12.25,446.02c137.79-9.91,250.6-100.18,380.99-136.23c56.93-15.74,112.47-16.33,169.18,0.12
				c60.42,17.52,116.78,46.97,172.79,75.06c107.26,53.8,218.66,110.94,339.7,68c123.27-43.72,223.13-147.91,358.54-156.04"/>
			<line class="st0" x1="1439.06" y1="296.83" x2="1439.06" y2="296.83"/>
		</g>
		<g>
			<line class="st0" x1="1.01" y1="470.2" x2="1.01" y2="470.2"/>
			<path class="st1" d="M12.25,469.62c136.61-12.56,250.96-96.52,381.06-132.11c57.99-15.86,111.09-16.28,168.71,0.48
				c60.26,17.53,116.99,45.54,173.48,72.41c56.26,26.77,112.98,54.48,173.24,71.16c57.23,15.84,110.32,14.53,166.61-5.43
				c122.96-43.61,223.8-141.79,358.03-152.78"/>
			<line class="st0" x1="1439.05" y1="323.11" x2="1439.05" y2="323.11"/>
		</g>
		<g>
			<line class="st0" x1="1.01" y1="490.13" x2="1.01" y2="490.13"/>
			<path class="st1" d="M12.26,489.39c135.17-13.72,251.42-90.22,381.12-124.04c58.69-15.3,110.19-15.49,168.4,0.94
				c60.17,16.99,117.42,43.08,174.49,68.24c56.86,25.07,114.05,50.89,174.21,67.14c57.77,15.61,109.13,14.55,166.08-5.26
				c122.28-42.54,224.27-133.96,356.75-146.68"/>
			<line class="st0" x1="1439.04" y1="349.38" x2="1439.04" y2="349.38"/>
		</g>
		<g>
			<line class="st0" x1="1.02" y1="506.65" x2="1.02" y2="506.65"/>
			<path class="st1" d="M12.26,505.85c133.59-13.63,251.95-81.61,381.18-112.55c59.05-14.14,109.74-14.05,168.24,1.47
				c60.19,15.97,118.05,39.72,175.8,62.72c57.55,22.93,115.33,46.43,175.47,61.77c23.94,6.1,50.93,13.26,75.92,13.11
				c30.02-0.18,61.36-8.78,89.61-18.24c121.27-40.61,224.51-124.56,354.77-138.06"/>
			<line class="st0" x1="1439.03" y1="375.64" x2="1439.03" y2="375.64"/>
		</g>
		<g>
			<line class="st0" x1="1.02" y1="520.27" x2="1.02" y2="520.27"/>
			<path class="st1" d="M12.26,519.49c131.99-12.53,252.51-71.02,381.24-98.16c29.52-6.23,61.56-13.06,91.88-11.41
				c25.59,1.39,51.53,7.46,76.33,13.44c60.32,14.54,118.89,35.57,177.39,56.02c58.31,20.38,116.77,41.21,177.02,55.22
				c23.99,5.58,51.04,12.67,75.93,12.49c29.72-0.22,60.9-8.62,89.03-17.52c119.96-37.95,224.48-113.73,352.14-127.21"/>
			<line class="st0" x1="1439.03" y1="401.9" x2="1439.03" y2="401.9"/>
		</g>
		<g>
			<line class="st0" x1="1.02" y1="531.53" x2="1.02" y2="531.53"/>
			<path class="st1" d="M12.26,530.84c130.48-10.64,253.06-58.79,381.3-81.4c29.72-5.24,61.52-11.23,91.8-9.59
				c25.6,1.39,51.5,6.92,76.51,12.19c60.57,12.76,119.91,30.76,179.22,48.31c59.12,17.49,118.34,35.32,178.81,47.65
				c24.18,4.93,51.16,11.62,76.05,11.4c29.41-0.25,60.26-8.15,88.3-16.35c118.41-34.64,224.16-101.62,348.92-114.44"/>
			<line class="st0" x1="1439.02" y1="428.15" x2="1439.02" y2="428.15"/>
		</g>
		<g>
			<line class="st0" x1="1.02" y1="540.94" x2="1.02" y2="540.94"/>
			<path class="st1" d="M12.27,540.41c129.16-8.19,253.56-45.27,381.36-62.8c58.32-8,110.69-7.01,168.52,3.15
				c60.94,10.71,121.12,25.41,181.28,39.76c59.98,14.31,120.01,28.87,180.82,39.26c24.48,4.18,51.29,10.18,76.28,9.93
				c29.1-0.29,59.46-7.44,87.46-14.82c116.68-30.73,223.49-88.38,345.16-100.04"/>
			<line class="st0" x1="1439.02" y1="454.4" x2="1439.02" y2="454.4"/>
		</g>
		<g>
			<line class="st0" x1="1.02" y1="549.04" x2="1.02" y2="549.04"/>
			<path class="st1" d="M12.27,548.69c129.12-5.39,255.92-31.25,384.4-43.17c118.2-10.96,233.41,13.7,349.4,34.49
				c112.42,20.15,230.02,51.65,343.49,25.97c115.8-26.2,224.16-74.69,343.58-84.93"/>
			<line class="st0" x1="1439.01" y1="480.65" x2="1439.01" y2="480.65"/>
		</g>
		<g>
			<line class="st0" x1="1.02" y1="556.35" x2="1.02" y2="556.35"/>
			<path class="st1" d="M12.27,556.21c128.44-2.32,256.22-16.04,384.46-22.33c118.18-5.79,235.07,11.17,352.24,25.08
				c113.4,13.46,231.88,38.01,345.29,16.38c113.7-21.69,222.71-59.6,338.88-68.09"/>
			<line class="st0" x1="1439.01" y1="506.89" x2="1439.01" y2="506.89"/>
		</g>
		<g>
			<line class="st0" x1="1.02" y1="563.39" x2="1.02" y2="563.39"/>
			<path class="st1" d="M12.28,563.48c128.17,0.82,256.35-0.65,384.52-1.23c118.62-0.54,236.94,8.35,355.32,15.24
				c114.52,6.66,233.25,23.81,347.22,6.47c111.56-16.97,220.77-43.9,333.8-50.53"/>
			<line class="st0" x1="1439.01" y1="533.13" x2="1439.01" y2="533.13"/>
		</g>
		<g>
			<line class="st0" x1="1.02" y1="570.7" x2="1.02" y2="570.7"/>
			<path class="st1" d="M12.28,571c128.33,3.86,256.3,14.56,384.58,19.61c119.5,4.7,239.01,5.27,358.59,5.12
				c115.79-0.14,234.11,9.2,349.29-3.57c109.46-12.14,218.26-27.81,328.41-32.56"/>
			<line class="st0" x1="1439.01" y1="559.37" x2="1439.01" y2="559.37"/>
		</g>
		<g>
			<line class="st0" x1="1.02" y1="578.8" x2="1.02" y2="578.8"/>
			<path class="st1" d="M12.28,579.29c128.89,6.67,256.11,29.2,384.64,39.65c120.76,9.82,241.32,1.94,362.02-5.14
				c117.07-6.87,234.57-5.65,351.45-13.56c107.45-7.27,215.1-11.54,322.76-14.47"/>
			<line class="st0" x1="1439.01" y1="585.61" x2="1439.01" y2="585.61"/>
		</g>
		<g>
			<line class="st0" x1="1.02" y1="588.22" x2="1.02" y2="588.22"/>
			<path class="st1" d="M12.28,588.85c129.8,9.07,255.78,42.89,384.7,58.37c122.26,14.68,243.94-1.6,365.58-15.38
				c118.14-13.39,234.9-20.55,353.69-23.31c105.63-2.45,211.24,4.66,316.91,3.42"/>
			<line class="st0" x1="1439.02" y1="611.85" x2="1439.02" y2="611.85"/>
		</g>
		<g>
			<line class="st0" x1="1.02" y1="599.47" x2="1.02" y2="599.47"/>
			<path class="st1" d="M12.29,600.2c130.97,10.89,255.37,55.27,384.75,75.23c123.88,19.1,246.9-5.36,369.24-25.47
				c118.77-19.52,235.39-35.27,355.99-32.65c104.02,2.26,206.65,20.55,310.91,20.81"/>
			<line class="st0" x1="1439.02" y1="638.09" x2="1439.02" y2="638.09"/>
		</g>
		<g>
			<line class="st0" x1="1.02" y1="613.09" x2="1.02" y2="613.09"/>
			<path class="st1" d="M12.29,613.85c132.3,11.94,254.91,65.99,384.81,89.7c125.55,22.91,250.18-9.32,372.94-35.25
				c118.83-25.1,236.28-49.46,358.32-41.38c102.67,6.8,201.34,35.86,304.83,37.4"/>
			<line class="st0" x1="1439.02" y1="664.34" x2="1439.02" y2="664.34"/>
		</g>
		<g>
			<line class="st0" x1="1.02" y1="629.61" x2="1.02" y2="629.61"/>
			<path class="st1" d="M12.29,630.3c133.69,11.99,254.46,74.71,384.87,101.25c127.23,25.9,253.7-13.43,376.67-44.58
				c118.32-29.97,237.64-62.78,360.67-49.32c43.88,4.8,86.27,15.98,128.87,27.09c56.08,14.62,111.75,24.37,169.83,25.78"/>
			<line class="st0" x1="1439.02" y1="690.58" x2="1439.02" y2="690.58"/>
		</g>
		<g>
			<line class="st0" x1="1.02" y1="649.55" x2="1.02" y2="649.55"/>
			<path class="st1" d="M12.3,650.08c135.01,10.82,254.06,81.09,384.93,109.36c128.93,27.85,257.34-17.62,380.39-53.31
				c117.39-34.04,239.43-74.82,363.01-56.3c43.28,6.49,84.32,20.63,125.62,34.58c54.76,18.5,108.99,30.61,166.99,32.36"/>
			<line class="st0" x1="1439.02" y1="716.83" x2="1439.02" y2="716.83"/>
		</g>
		<g>
			<line class="st0" x1="1.02" y1="673.43" x2="1.02" y2="673.43"/>
			<path class="st1" d="M12.3,673.68c136.13,8.2,253.74,84.8,384.99,113.49c130.67,28.56,260.94-21.79,384.05-61.29
				c116.23-37.29,241.54-85.21,365.32-62.13c42.75,7.97,82.42,24.79,122.4,41.29c53.39,22.03,106.16,36.16,164.19,38"/>
			<line class="st0" x1="1439.03" y1="743.09" x2="1439.03" y2="743.09"/>
		</g>
	</g>
</g>
<ellipse class="st2" cx="132.01" cy="2800.39" rx="336.01" ry="336.18"/>
<ellipse transform="matrix(0.2298 -0.9732 0.9732 0.2298 871.2516 1637.7562)" class="st3" cx="1470.32" cy="268.44" rx="249.39" ry="249.3"/>
</svg>
